<?xml version="1.0" standalone="no"?>
<!DOCTYPE svg PUBLIC "-//W3C//DTD SVG 20010904//EN"
 "http://www.w3.org/TR/2001/REC-SVG-20010904/DTD/svg10.dtd">
<svg version="1.0" xmlns="http://www.w3.org/2000/svg"
 width="295.000000pt" height="234.000000pt" viewBox="0 0 295.000000 234.000000"
 preserveAspectRatio="xMidYMid meet">
<metadata>
Created by potrace 1.10, written by Peter Selinger 2001-2011
</metadata>
<g transform="translate(0.000000,234.000000) scale(0.100000,-0.100000)"
fill="#000000" stroke="none">
<path d="M1092 2062 c-16 -16 -37 -45 -46 -65 l-15 -37 -74 0 c-52 0 -76 4
-80 13 -6 16 -85 72 -92 65 -3 -3 2 -24 10 -48 23 -64 20 -78 -21 -95 -19 -8
-33 -19 -30 -24 3 -5 -1 -14 -9 -21 -19 -16 -19 -56 -1 -67 8 -4 16 -21 18
-38 2 -20 11 -33 25 -40 16 -6 25 -21 29 -45 3 -19 7 -45 10 -57 4 -23 -25
-63 -46 -63 -5 0 -22 19 -36 43 -94 148 -297 388 -354 417 -49 25 -58 25 -94
-4 -38 -31 -29 -57 26 -74 56 -18 77 -37 70 -65 -5 -20 -4 -21 12 -8 20 17 22
15 55 -49 10 -19 33 -62 51 -95 18 -32 41 -86 52 -119 27 -82 93 -184 177
-272 17 -17 18 -26 11 -60 -17 -73 -11 -142 21 -238 47 -137 49 -225 10 -401
-56 -254 -83 -321 -126 -313 -33 7 -42 -2 -46 -42 l-4 -35 58 -9 c55 -9 59 -8
87 19 29 28 46 65 70 155 16 59 32 92 50 107 8 6 12 15 8 18 -4 4 2 25 13 47
11 22 41 93 66 157 25 64 47 118 48 119 4 4 76 -74 89 -95 4 -8 7 -65 7 -127
-2 -121 12 -171 73 -261 20 -29 24 -41 14 -46 -17 -9 -207 9 -260 25 -34 9
-48 9 -66 0 -37 -19 -45 -31 -38 -58 7 -28 17 -31 149 -42 75 -6 78 -7 62 -24
-21 -24 -11 -58 18 -65 12 -3 123 -1 247 3 218 8 226 10 270 35 52 31 74 33
123 12 44 -18 101 -19 457 -4 240 10 295 10 431 -5 194 -20 219 -20 219 -2 0
20 -42 31 -194 56 -192 30 -357 41 -581 38 l-200 -3 -55 30 -55 30 3 70 c9
250 7 275 -26 374 -75 219 -172 382 -261 439 -31 19 -79 56 -107 82 -27 26
-60 51 -72 54 -15 5 -22 15 -22 33 0 14 -18 64 -40 110 -36 77 -40 93 -40 164
0 53 5 90 17 113 13 29 15 44 7 79 -8 32 -7 53 2 79 17 48 7 112 -21 138 l-22
21 -31 -29z m34 -159 c-2 -65 -9 -131 -15 -146 -6 -16 -11 -63 -11 -105 0 -68
4 -87 35 -150 19 -40 39 -90 45 -111 8 -31 27 -53 93 -108 45 -38 101 -82 124
-96 23 -15 57 -47 77 -72 50 -66 128 -224 166 -335 28 -80 33 -110 33 -190 1
-52 -3 -124 -8 -159 -13 -98 19 -140 140 -187 l50 -19 -63 -3 c-40 -2 -82 3
-113 13 -52 17 -95 11 -145 -22 -26 -17 -71 -21 -292 -28 -158 -4 -173 -3
-178 13 -3 9 -11 29 -19 45 l-14 27 74 0 c67 0 75 2 94 26 22 29 23 25 -30
131 -38 76 -39 80 -39 185 0 59 -5 119 -11 135 -11 31 -97 123 -114 123 -21 0
-62 -55 -85 -115 -29 -73 -94 -226 -121 -280 -26 -55 -24 -27 12 144 37 178
35 251 -12 403 -29 93 -31 109 -25 192 l6 91 -50 65 c-87 113 -130 182 -145
232 -8 27 -39 96 -69 154 -35 67 -49 100 -37 92 19 -13 145 -171 190 -238 38
-55 83 -100 102 -100 10 0 31 12 48 26 26 21 31 33 31 69 0 49 -13 91 -39 120
-9 11 -24 37 -34 57 l-17 38 44 49 c24 27 46 55 48 61 3 10 9 10 25 1 12 -6
48 -11 81 -11 66 0 101 19 127 71 9 16 22 29 30 29 11 0 13 -21 11 -117z
m-745 46 c43 -30 35 -43 -8 -13 -47 31 -49 34 -34 34 7 0 26 -9 42 -21z m368
-1626 c-14 -37 -38 -63 -59 -63 -11 0 -4 13 24 45 23 24 42 45 43 45 1 0 -2
-12 -8 -27z"/>
</g>
</svg>
