<?xml version="1.0" standalone="no"?>
<!DOCTYPE svg PUBLIC "-//W3C//DTD SVG 20010904//EN"
 "http://www.w3.org/TR/2001/REC-SVG-20010904/DTD/svg10.dtd">
<svg version="1.0" xmlns="http://www.w3.org/2000/svg"
 width="300.000000pt" height="189.000000pt" viewBox="0 0 300.000000 189.000000"
 preserveAspectRatio="xMidYMid meet">
<metadata>
Created by potrace 1.10, written by Peter Selinger 2001-2011
</metadata>
<g transform="translate(0.000000,189.000000) scale(0.100000,-0.100000)"
fill="#000000" stroke="none">
<path d="M2458 1812 c-92 -98 -128 -114 -128 -56 0 45 -30 42 -74 -9 -23 -25
-63 -62 -90 -82 -66 -50 -88 -78 -132 -165 -44 -87 -95 -146 -165 -191 l-50
-32 -73 12 c-51 8 -80 9 -100 1 -15 -5 -67 -10 -116 -10 -114 0 -178 -14 -265
-57 -170 -85 -273 -187 -359 -359 -47 -94 -56 -142 -61 -306 -5 -218 -30 -250
-200 -263 -49 -4 -110 -9 -135 -11 -59 -6 -226 14 -268 32 -50 20 -123 85
-139 121 -7 19 -13 69 -13 118 0 47 -4 85 -9 85 -5 0 -22 -26 -38 -57 -34 -71
-39 -185 -10 -244 23 -47 100 -123 146 -145 48 -23 204 -34 466 -33 116 0 237
-1 270 -1 138 -4 220 -4 407 4 137 5 202 4 217 -3 11 -6 40 -13 64 -16 38 -3
48 0 68 21 20 21 21 28 11 44 -19 31 -14 39 21 33 51 -8 101 9 105 36 5 32
-15 51 -54 51 -22 0 -34 5 -34 14 0 14 85 96 100 96 11 0 80 -114 121 -202 21
-42 46 -81 57 -87 12 -6 59 -11 105 -11 88 0 115 11 97 40 -17 27 -11 38 30
54 27 11 40 22 40 35 0 27 -18 38 -74 44 -27 2 -52 10 -56 17 -4 7 -15 45 -25
85 -21 91 -15 135 31 212 45 74 66 96 138 145 135 92 164 152 151 306 -11 126
2 141 158 178 31 7 52 34 62 79 4 17 11 40 17 52 9 19 6 26 -20 48 -21 17 -33
39 -37 63 -11 64 -24 87 -86 148 -32 32 -59 66 -59 75 0 9 14 44 31 77 17 34
29 67 27 73 -2 6 -33 -21 -70 -59z m-137 -108 c13 -15 24 -15 91 1 20 6 27 3
32 -13 4 -11 31 -45 61 -75 37 -39 58 -70 65 -99 7 -24 22 -62 36 -85 43 -75
14 -128 -86 -156 -102 -30 -133 -81 -125 -207 6 -86 -6 -153 -33 -184 -10 -10
-48 -42 -87 -71 -94 -70 -120 -98 -160 -169 -52 -95 -58 -127 -38 -225 18 -94
45 -135 93 -144 l30 -6 -31 -46 -31 -45 -60 4 c-34 3 -64 9 -69 13 -4 4 -28
50 -55 100 -53 104 -110 173 -142 173 -28 0 -122 -90 -122 -117 0 -11 9 -28
20 -38 25 -23 25 -35 1 -35 -26 0 -69 -37 -73 -63 -3 -20 -8 -22 -53 -19 -115
6 -464 6 -710 1 -290 -7 -592 3 -656 23 -81 24 -214 192 -189 239 14 25 26 18
34 -23 8 -42 92 -123 160 -154 76 -35 220 -45 406 -30 109 9 164 30 203 75 35
43 46 87 48 206 3 186 24 266 104 391 78 121 204 226 337 281 50 20 91 27 198
35 74 5 150 11 168 12 19 2 55 -1 80 -6 40 -7 54 -5 98 17 70 34 159 133 208
229 27 52 54 90 84 114 24 20 63 54 86 74 46 42 58 45 77 22z"/>
</g>
</svg>
